Patient4_TMGait_0pt4_01_right_11_EMG.mot
version=1
nRows=33
nColumns=33
inDegrees=no
endheader
time	1LAddLong	2LGlutMax	3LGlutMed	4LIliopsoas	5LSemiMemb	6LBicFemLong	7LRecFem	8LVastMed	9LVastLat	10LGasMed	11LTibAnt	12lTibPost	13LPeroneusLong	14LSol	15LExtDigLong	16LFlexDigLong	17RAddLong	18RGlutMax	19RGlutMed	20RIliopsoas	21RSemiMemb	22RBicFemLong	23RRecFem	24RVastMed	25RVastLat	26RGasMed	27RTibAnt	28RTibPost	29RPeroneusLong	30RSol	31RExtDigLong	32RFlexDigLong
14.915	-0.012817	-0.06073	-0.002899	-0.010071	-0.082703	-0.032043	-0.017395	-0.00473	-0.20752	0.012512	-0.000916	0.02121	0.016022	0.033264	-0.003662	0.00351	0.000153	-0.007629	0.44342	-0.030365	0.053864	-0.086365	-0.064697	-0.019989	-0.003052	-0.004578	-0.4538	-0.00473	0.001526	0.10651	-0.001984	-0.002136
14.916	-0.01358	-0.07843	-0.035248	0.004578	-0.121	0.007172	0.03067	-0.019226	-0.067902	0.016632	-0.006104	0.027161	0.017395	0.044098	0.000458	-0.003662	0.010071	-0.043945	0.082245	0.10437	0.067749	-0.083008	-0.06897	-0.031891	-0.004578	-0.011597	-0.30685	-0.003204	0.088501	0.064087	-0.003815	-0.008392
14.917	-0.007629	-0.042114	-0.029755	0.011292	-0.047913	0.009003	-0.023041	-0.014801	0.17944	0.024109	0.001984	-0.014801	0.019379	0.036163	0.000153	-0.000916	0.014954	-0.039063	0.04303	0.1387	-0.028076	-0.060425	-0.076752	-0.033264	-0.009918	-0.002136	-0.14343	-0.002136	0.022583	-0.037994	-0.004578	-0.020142
14.918	-0.009918	-0.025177	-0.041809	0.008545	-0.00824	-0.01297	-0.042114	-0.022583	0.25726	0.021667	-0.005188	0.005493	0.021362	0.025787	0.000305	-0.004425	-0.007935	-0.027313	0.12207	0.13229	-0.075684	-0.019684	-0.085907	0.019073	0.006256	-0.006714	-0.084991	-0.004425	0.016022	-0.036926	-0.00412	-0.013885
14.919	-0.000916	-0.066071	-0.042725	0.002899	0.027008	-0.005035	-0.035858	-0.031128	0.12665	0.010529	-0.007172	-0.007477	0.024872	0.026855	0.003357	-0.005188	0.005188	-0.002289	0.18524	0.083313	-0.084839	-0.030975	-0.0737	-0.006866	0.006714	0.006409	-0.085449	-0.005035	0.087128	0.008545	-0.005035	-0.007935
14.92	0.010071	-0.030975	-0.0354	-0.015106	0.14542	0.01297	-0.055389	-0.020905	0.00351	0.00946	-0.000458	-0.005341	-0.009766	0.028076	-0.001678	-0.001678	0.02243	-0.019073	0.067444	0.070953	0.1033	-0.11353	-0.086823	0.033264	-0.013885	0.000305	-0.043335	-0.005493	-0.00885	0.007324	-0.005188	-0.018768
14.921	0.009003	-0.000305	-0.020294	-0.013733	0.11902	0.016022	-0.007477	-0.000305	-0.16403	-0.004883	0.001221	-0.008087	-0.009766	0.030365	-0.003967	-0.00061	0.018616	-0.052185	0.097809	0.084991	0.067902	-0.1532	-0.08255	-0.009918	0.01236	0.006256	-0.037842	-0.004578	-0.10635	0.023804	-0.005188	-0.018158
14.922	0.013733	-0.007477	-0.028381	0.004425	0.004272	0.009766	0.007477	0.009155	-0.10239	-0.010223	0.001984	-0.001068	0.009918	0.046692	-0.002136	0.00351	0.015106	-0.030975	0.034943	0.1387	0.060425	-0.1413	-0.1619	0.04303	0.00473	0.00946	-0.041504	-0.00412	-0.11307	0.095367	-0.002136	-0.013885
14.923	0.015259	-0.049896	-0.024872	0.037231	-0.058899	0.037842	-0.02243	0.018616	-0.074158	0.005035	-0.027008	0.006866	0.010529	0.030823	0.003357	-0.005035	0.029297	-0.067291	-0.034637	0.14832	0.050659	-0.16235	-0.14023	0.013275	0.020599	0.001221	-0.028076	-0.001373	-0.095367	0.090485	-0.008392	-0.020599
14.924	0.023346	-0.09552	-0.02182	0.02121	-0.09201	0.10971	-0.097809	0.025787	-0.11475	0.022583	-0.012665	-0.007019	0.010986	0.01358	0.007935	-0.007935	0.044556	-0.12238	0.004425	0.077667	-0.00412	-0.16998	-0.10849	0.001373	0.003815	-0.00061	0.02182	-0.004425	-0.050049	0.031891	-0.006256	-0.020142
14.925	0.030365	-0.088043	-0.021515	0.013123	0.042572	0.063934	-0.088806	0.008698	0.009155	0.013275	-0.022583	-0.001678	0.005493	0.024414	0.003204	0.011139	0.047302	-0.098267	-0.012207	0.049744	-0.098419	-0.15411	-0.13336	-0.006104	0.005646	0.001068	0.021667	-0.005646	0.075226	0.052948	-0.005341	-0.016632
14.926	0.020752	-0.13123	-0.016022	-0.001221	0.05249	0.12283	0.00824	0.005493	0.20371	0.003967	-0.040741	-0.001831	0.03067	0.010681	0.013733	-0.004578	0.020752	-0.13763	0.071869	0.028229	0.023499	0.00473	-0.12985	-0.002594	0.013275	-0.00885	-0.001831	-0.003204	0.27222	0.09552	-0.005493	-0.018311
14.927	0.010681	-0.07782	0.002747	0.014954	0.049591	0.21149	-0.050964	-0.010529	0.31494	-0.00946	-0.046234	-0.006866	0.018616	0.039825	0.002441	-0.000916	-0.002136	-0.052643	-0.073547	0.001984	0.12848	0.10147	-0.16754	0.019684	0.017242	-0.033569	0.012817	-0.001678	0.22049	0.11856	-0.00412	-0.021057
14.928	0.003662	-0.092468	0.005951	-0.014496	0.045776	0.23117	-0.07843	-0.006104	0.19669	0.015411	0.020599	-0.009155	-0.009155	0.033569	-0.002747	-0.004578	-0.016327	-0.13214	-0.03891	-0.05127	0.10819	0.02533	-0.15945	0.044861	0.010376	-0.049591	0.052338	-0.009308	-0.018005	-0.10483	-0.004272	-0.023499
14.929	-0.002136	-0.094757	0.020142	-0.00885	-0.00351	0.1738	-0.13809	0.019684	0.081024	0.006866	0.009308	-0.005951	0.000305	0.037079	-0.001373	0.005188	-0.008087	-0.14816	-0.034943	-0.052795	0.13901	-0.13992	-0.15106	-0.034943	0.004272	-0.033417	0.068359	0.000916	-0.066071	-0.13977	-0.005493	-0.016174
14.93	-0.001068	-0.078888	0.027466	-0.002441	-0.04837	0.056458	-0.12482	0.023956	-0.039825	0.019073	0.003815	-0.007172	0.02121	0.10269	-0.002136	0.014191	-0.039673	-0.14999	-0.10132	-0.08255	0.12405	-0.053406	-0.17395	0.024719	-0.003662	0.000153	0.035553	-0.000305	0.008087	0.085907	-0.007019	-0.012512
14.931	-0.00885	0.009613	0.039978	0.005188	-0.1236	0.023499	-0.056152	0.024109	-0.14297	0.030212	-0.000153	-0.007782	0.008545	0.17883	-0.00412	0.002289	-0.056763	-0.078735	-0.12466	-0.080261	0.10178	0.13031	-0.15472	0.083771	0.023956	0.005798	0.061188	0.001068	-0.044861	0.096893	-0.006256	-0.01236
14.932	-0.015564	0.073242	0.06958	-0.010681	-0.17899	-0.076141	-0.04837	0.022278	-0.13107	0.03952	0.001526	-0.007477	0.006104	0.15045	0.001984	-0.001373	-0.048981	-0.075684	-0.087585	-0.002441	-0.028534	0.27573	-0.18692	0.1033	0.025787	0.016937	0.046692	0.009308	-0.094299	0.054016	-0.006409	-0.008545
14.933	-0.004272	0.13412	0.078583	0.001221	-0.11093	-0.049744	-0.083313	0.013275	-0.17456	0.038147	-0.000153	-0.005341	0.003662	0.063934	0.004883	-0.005341	-0.03479	-0.029449	-0.074615	0.004425	-0.003815	0.30441	-0.13016	0.065308	0.02655	0.018311	0.050049	0.010986	-0.12283	0.14358	-0.007477	-0.005798
14.934	0.014343	0.168	0.067291	0.011292	0.041504	-0.018463	-0.17197	0.018768	-0.24216	0.067444	0.002441	-0.009613	-0.005341	-0.029907	0.011597	0.000305	-0.027771	0.053558	-0.091248	0.025787	0.2385	0.1149	-0.14175	0.045166	0.017548	0.024872	0.014496	0.014954	0.044708	-0.010986	-0.004883	-0.015259
14.935	0.014954	0.15305	0.048218	0.01236	0.18326	0.024872	-0.20447	0.004578	-0.16388	-0.030212	0.002747	-0.00473	0.008087	-0.053253	0.012207	0.01358	-0.026245	0.000153	-0.079346	0.040436	0.20844	0.015564	-0.12726	0.04364	-0.001221	0.023804	0.007629	-0.005188	0.007782	-0.29968	-0.005493	-0.018463
14.936	-0.013733	0.12024	0.01358	-0.002289	0.16083	-0.002594	-0.19531	-0.015106	-0.035248	0.000458	-0.007172	-0.00473	0.000916	-0.043488	-0.007935	0.000153	-0.022583	-0.05661	-0.059814	0.018158	0.11292	0.072632	-0.16861	0.021515	0.00412	0.007629	-0.016022	-0.084076	0.058289	0.096741	-0.003815	-0.018005
14.937	-0.028839	0.074921	-0.00946	0.003815	0.031586	0.031128	-0.10864	-0.010071	0.14023	0.018005	-0.004578	0.000305	0.010223	-0.16251	-0.010681	0.0177	-0.013275	-0.050659	-0.062408	-0.012665	0.048523	0.086823	-0.14175	0.064392	0.00946	-0.001984	0.005188	-0.009003	0.009003	0.85999	-0.008698	-0.012054
14.938	-0.035095	0.059662	-0.018921	-0.018616	-0.051117	0.045929	-0.036469	-0.003204	0.14099	0.011292	0.005188	0.014191	-0.001373	-0.12161	-0.004883	0.017853	0.003204	-0.036774	-0.089874	0.019989	0.031281	0.060272	-0.11704	-0.015106	-0.001373	0.002747	0.014954	0.019989	-0.38406	0.57358	-0.009766	-0.017853
14.939	-0.046997	0.062561	-0.014954	-0.001831	-0.1004	0.020905	0.026245	-0.010223	0.093842	0.020294	0.005035	0.005798	0.009766	0.026855	0.00351	0.036469	0.015564	-0.012665	-0.083008	0.006714	0.050354	0.016632	-0.14923	-0.003052	0.002747	-0.082855	0.023041	-0.011292	-0.32806	-0.093994	-0.006256	-0.014038
14.94	-0.039215	0.031738	-0.014648	0.009308	-0.091553	-0.17334	0.023499	-0.004272	0.000763	0.020294	-0.005341	0.005951	0.016937	0.075684	-0.004578	0.007324	0.026398	-0.005493	-0.065155	0.022278	0.020905	0.002136	-0.17044	0.046844	-0.009766	-0.096741	0.046387	-0.035248	-0.18341	-0.51117	-0.003357	-0.020599
14.941	-0.013733	0.03952	-0.033722	0.011139	0.010529	-0.31204	-0.016327	-0.018005	0.12787	0.024414	-0.00824	0.003204	0.039673	0.096436	0.00061	-0.005493	0.036774	0.002289	-0.045166	0.001984	0.041809	0.00946	-0.19592	-0.014801	-0.006256	-0.036011	0.05661	-0.030823	-0.30258	-0.63889	-0.008545	-0.016327
14.942	-0.005646	0.043488	-0.060425	0.016022	0.079956	-0.3122	-0.015564	-0.004272	0.15732	0.045776	-0.009766	0.004883	0.040588	0.07843	-0.003204	0.003815	0.03006	0.006104	-0.059814	0.00946	0.11139	0.1004	-0.19012	0.003357	0.005341	0.031433	0.064087	0.042725	-0.40192	-0.76843	-0.005493	-0.018616
14.943	-0.016174	-0.000916	-0.052948	0.00824	0.13931	-0.27924	-0.031433	0.000153	0.1503	0.054932	-0.002594	0.005341	-0.007782	0.11124	-0.012054	0.008087	0.052032	0.004578	-0.056458	0	0.082855	0.083313	-0.2034	-0.007629	-0.007782	0.025787	-0.005341	0.00885	-0.059814	-1.0582	-0.005951	-0.017853
14.944	-0.011749	0.000153	-0.043488	0.018158	0.13901	-0.041046	-0.045471	0.009155	0.17242	0.028992	-0.002289	0.021667	-0.031281	-0.035248	0.013123	0.03006	0.047607	0.00824	-0.065765	-0.002441	-0.13519	0.074615	-0.2301	0.0177	-0.009155	-0.026093	-0.032959	-0.1236	-0.36682	-1.2309	-0.006714	-0.016937
14.945	-0.007019	-0.047607	-0.05249	0.00824	0.10437	0.067902	-0.041656	0.007324	0.18326	0.016174	-0.011749	0.020752	0.033875	-0.33096	0.020294	0.027924	0.029907	-0.036621	-0.039063	-0.054016	-0.31189	0.02655	-0.23254	0.02655	0.00885	0.025482	0.045776	-0.15167	-1.1223	-0.71625	-0.00885	-0.014648
14.946	-0.006104	-0.000916	-0.065613	-0.010986	0.047455	0.072021	0.013123	-0.00351	0.079193	0.002289	0.001678	0.034027	-0.06134	-0.26489	0.014496	0.015106	0.023651	-0.059052	-0.041962	-0.085297	-0.094757	-0.079041	-0.20416	-0.003204	-0.004425	0.033264	-0.016022	0.28519	-0.3122	-0.13596	-0.00824	-0.005646
14.947	0.007935	0.052795	-0.060577	-0.014648	-0.007935	0.030823	0.011902	-0.007782	-0.032196	0.001068	0.014343	0.025177	-0.059509	-0.058441	0.03006	-0.043945	-0.005035	-0.024414	-0.11704	-0.048828	0.15045	-0.15595	-0.15091	-0.02182	-0.007935	0.026093	-0.041046	0.10468	0.28183	0.085297	-0.007477	-0.001678
